<?xml version="1.0" standalone="no"?>
<!DOCTYPE svg PUBLIC "-//W3C//DTD SVG 20010904//EN"
 "http://www.w3.org/TR/2001/REC-SVG-20010904/DTD/svg10.dtd">
<svg version="1.0" xmlns="http://www.w3.org/2000/svg"
 width="96.000000pt" height="96.000000pt" viewBox="0 0 96.000000 96.000000"
 preserveAspectRatio="xMidYMid meet">
<metadata>
Created by potrace 1.14, written by Peter Selinger 2001-2017
</metadata>
<g transform="translate(0.000000,96.000000) scale(0.100000,-0.100000)"
fill="#000000" stroke="none">
<path d="M425 893 c-47 -50 -135 -171 -135 -186 0 -8 6 -20 13 -26 18 -14 30
-4 102 92 32 43 63 81 68 84 6 3 22 -9 37 -27 l27 -33 -62 -77 c-71 -88 -124
-174 -162 -264 -29 -68 -41 -203 -21 -240 10 -19 10 -20 -6 -7 -67 55 -81 198
-32 311 37 87 42 115 21 124 -24 9 -33 0 -59 -57 -47 -106 -51 -122 -50 -207
0 -96 19 -148 76 -211 43 -47 77 -68 173 -109 67 -29 91 -35 151 -34 58 1 80
6 123 30 123 66 178 200 140 339 -20 72 -126 278 -187 364 -119 166 -162 192
-217 134z"/>
</g>
</svg>
